# xmcd
#
# Track frame offsets:
#	150
#	11241
#	22829
#	35851
#	48822
#	61386
#	73591
#	83802
#	96817
#	107784
#	118461
#	132837
#	143487
#	156735
#	168782
#	179479
#	189696
#	200218
#	210938
#	221359
#	231399
#	244801
#	255186
#	269339
#	281390
#	292837
#	303630
#	318024
#
# Disc length: 4377 seconds
#
# Revision: 0
# Processed by: cddbd v1.4PL0 Copyright (c) Steve Scherf et al.
# Submitted via: EasyCDDAExtractor 4.6.0.1
#
DISCID=9a11171c
DTITLE=Various Artist - A Million Dollars Worth Of Doo-Wop  Vol 15
DYEAR=1900
DGENRE=Blues
TTITLE0=Emeralds - Soda Pop
TTITLE1=Chipettes (Chip Allen and the) - Tell Me Today
TTITLE2=Uniques - All At Once
TTITLE3=Rhythm Aces - That's My Sugar
TTITLE4=Rhythm Aces - Flippety Flop
TTITLE5=Metalics - I Need Your Love
TTITLE6=Concepts - Jumgle
TTITLE7=Dreamers - Melba
TTITLE8=Dreamers - No Man Is An Island
TTITLE9=Four Blades - Church Bells May Ring
TTITLE10=Romeos - Let's Be Partners
TTITLE11=Romeos - Gone Gone Getaway
TTITLE12=Raindrops - Little One
TTITLE13=Raindrops - Rockin' On The Farm
TTITLE14=V-8's - My Heart
TTITLE15=V-8's - Papa's Yellow Tie
TTITLE16=Cherades - Please Be My Love Tonight
TTITLE17=Cherades - Turn Him Down
TTITLE18=Royals (Richie and the) - And When I'm Near You
TTITLE19=Royals (Richie and the) - Goody Goody
TTITLE20=Pals - Summer Is Here
TTITLE21=Pals - My Baby Likes To Rock
TTITLE22=Four Gents - On Bended Knees
TTITLE23=Four Gents - Linda
TTITLE24=Five Delights - There'll Be No Goodbye
TTITLE25=Five Delights - Okey Dokey Mama
TTITLE26=Dodgers - Drip Drop
TTITLE27=Dodgers - Cat Hop
EXTD=
EXTT0=
EXTT1=
EXTT2=
EXTT3=
EXTT4=
EXTT5=
EXTT6=
EXTT7=
EXTT8=
EXTT9=
EXTT10=
EXTT11=
EXTT12=
EXTT13=
EXTT14=
EXTT15=
EXTT16=
EXTT17=
EXTT18=
EXTT19=
EXTT20=
EXTT21=
EXTT22=
EXTT23=
EXTT24=
EXTT25=
EXTT26=
EXTT27=
PLAYORDER=
